<mxfile host="Electron" agent="Mozilla/5.0 (Macintosh; Intel Mac OS X 10_15_7) AppleWebKit/537.36 (KHTML, like Gecko) draw.io/27.0.5 Chrome/134.0.6998.205 Electron/35.3.0 Safari/537.36" version="27.0.5">
  <diagram name="AWS AgentCore Simple Architecture" id="simple-architecture">
    <mxGraphModel dx="2052" dy="1258" grid="1" gridSize="10" guides="1" tooltips="1" connect="1" arrows="1" fold="1" page="1" pageScale="1" pageWidth="1169" pageHeight="827" math="0" shadow="0">
      <root>
        <mxCell id="0" />
        <mxCell id="1" parent="0" />
        <mxCell id="OhggSYJSpCa1kSrFaGi9-24" value="AWS Cloud" style="sketch=0;outlineConnect=0;gradientColor=none;html=1;whiteSpace=wrap;fontSize=12;fontStyle=0;shape=mxgraph.aws4.group;grIcon=mxgraph.aws4.group_vpc;strokeColor=#879196;fillColor=none;verticalAlign=top;align=left;spacingLeft=30;fontColor=#879196;dashed=0;" parent="1" vertex="1">
          <mxGeometry x="370" y="40" width="480" height="430" as="geometry" />
        </mxCell>
        <mxCell id="OhggSYJSpCa1kSrFaGi9-17" value="" style="rounded=0;whiteSpace=wrap;html=1;fillColor=#f8cecc;strokeColor=#b85450;" parent="1" vertex="1">
          <mxGeometry x="400" y="190" width="410" height="130" as="geometry" />
        </mxCell>
        <mxCell id="OhggSYJSpCa1kSrFaGi9-16" value="" style="rounded=0;whiteSpace=wrap;html=1;fillColor=#d5e8d4;strokeColor=#82b366;" parent="1" vertex="1">
          <mxGeometry x="400" y="70" width="410" height="120" as="geometry" />
        </mxCell>
        <mxCell id="user" value="" style="sketch=0;outlineConnect=0;fontColor=#232F3E;gradientColor=none;fillColor=#232F3D;strokeColor=none;dashed=0;verticalLabelPosition=bottom;verticalAlign=top;align=center;html=1;fontSize=12;fontStyle=0;aspect=fixed;pointerEvents=1;shape=mxgraph.aws4.user;" parent="1" vertex="1">
          <mxGeometry x="40" y="227.5" width="60" height="60" as="geometry" />
        </mxCell>
        <mxCell id="user-label" value="User" style="text;html=1;strokeColor=none;fillColor=none;align=center;verticalAlign=middle;whiteSpace=wrap;rounded=0;fontSize=12;fontColor=#232F3E;" parent="1" vertex="1">
          <mxGeometry x="40" y="287.5" width="60" height="20" as="geometry" />
        </mxCell>
        <mxCell id="flow1" value="1. Load Static Assets" style="edgeStyle=orthogonalEdgeStyle;rounded=0;orthogonalLoop=1;jettySize=auto;html=1;strokeColor=#5A30B5;strokeWidth=3;fontColor=#232F3E;fontSize=12;fontStyle=1;entryX=0;entryY=0.5;entryDx=0;entryDy=0;entryPerimeter=0;exitX=0.5;exitY=0;exitDx=0;exitDy=0;exitPerimeter=0;" parent="1" source="OhggSYJSpCa1kSrFaGi9-1" target="cloudfront" edge="1">
          <mxGeometry x="0.1549" y="10" relative="1" as="geometry">
            <mxPoint as="offset" />
            <mxPoint x="220" y="245" as="sourcePoint" />
          </mxGeometry>
        </mxCell>
        <mxCell id="flow1b" value="" style="edgeStyle=orthogonalEdgeStyle;rounded=0;orthogonalLoop=1;jettySize=auto;html=1;strokeColor=#5A30B5;strokeWidth=3;" parent="1" source="cloudfront" target="s3" edge="1">
          <mxGeometry relative="1" as="geometry" />
        </mxCell>
        <mxCell id="flow2" value="2. Sign In/Sign Up" style="edgeStyle=orthogonalEdgeStyle;rounded=0;orthogonalLoop=1;jettySize=auto;html=1;strokeColor=#C7131F;strokeWidth=3;fontColor=#232F3E;fontSize=12;fontStyle=1;exitX=1;exitY=0.5;exitDx=0;exitDy=0;exitPerimeter=0;" parent="1" source="OhggSYJSpCa1kSrFaGi9-1" target="cognito" edge="1">
          <mxGeometry x="-0.28" relative="1" as="geometry">
            <Array as="points">
              <mxPoint x="380" y="258" />
              <mxPoint x="380" y="258" />
            </Array>
            <mxPoint as="offset" />
          </mxGeometry>
        </mxCell>
        <mxCell id="jwt-response" value="JWT Token" style="edgeStyle=orthogonalEdgeStyle;rounded=0;orthogonalLoop=1;jettySize=auto;html=1;strokeColor=#C7131F;strokeWidth=2;dashed=1;fontColor=#232F3E;fontSize=11;exitX=0.5;exitY=0;exitDx=0;exitDy=0;exitPerimeter=0;entryX=0.98;entryY=0.02;entryDx=0;entryDy=0;entryPerimeter=0;" parent="1" source="cognito" target="OhggSYJSpCa1kSrFaGi9-1" edge="1">
          <mxGeometry x="0.1991" y="-10" relative="1" as="geometry">
            <Array as="points">
              <mxPoint x="480" y="210" />
              <mxPoint x="199" y="210" />
            </Array>
            <mxPoint x="210" y="260" as="targetPoint" />
            <mxPoint as="offset" />
          </mxGeometry>
        </mxCell>
        <mxCell id="OhggSYJSpCa1kSrFaGi9-1" value="" style="verticalLabelPosition=bottom;html=1;verticalAlign=top;align=center;strokeColor=none;fillColor=#00BEF2;shape=mxgraph.azure.computer;pointerEvents=1;" parent="1" vertex="1">
          <mxGeometry x="150" y="235" width="50" height="45" as="geometry" />
        </mxCell>
        <mxCell id="OhggSYJSpCa1kSrFaGi9-4" value="" style="group" parent="1" vertex="1" connectable="0">
          <mxGeometry x="584" y="100" width="100" height="90" as="geometry" />
        </mxCell>
        <mxCell id="s3-label" value="Amazon S3&lt;br&gt;Static assets" style="text;html=1;strokeColor=none;fillColor=none;align=center;verticalAlign=middle;whiteSpace=wrap;rounded=0;fontSize=11;fontColor=#232F3E;" parent="OhggSYJSpCa1kSrFaGi9-4" vertex="1">
          <mxGeometry y="60" width="100" height="30" as="geometry" />
        </mxCell>
        <mxCell id="s3" value="" style="sketch=0;points=[[0,0,0],[0.25,0,0],[0.5,0,0],[0.75,0,0],[1,0,0],[0,1,0],[0.25,1,0],[0.5,1,0],[0.75,1,0],[1,1,0],[0,0.25,0],[0,0.5,0],[0,0.75,0],[1,0.25,0],[1,0.5,0],[1,0.75,0]];outlineConnect=0;fontColor=#232F3E;gradientColor=#60A337;gradientDirection=north;fillColor=#277116;strokeColor=#ffffff;dashed=0;verticalLabelPosition=bottom;verticalAlign=top;align=center;html=1;fontSize=12;fontStyle=0;aspect=fixed;shape=mxgraph.aws4.resourceIcon;resIcon=mxgraph.aws4.s3;" parent="OhggSYJSpCa1kSrFaGi9-4" vertex="1">
          <mxGeometry x="20" width="60" height="60" as="geometry" />
        </mxCell>
        <mxCell id="OhggSYJSpCa1kSrFaGi9-7" value="Browser" style="text;html=1;strokeColor=none;fillColor=none;align=center;verticalAlign=middle;whiteSpace=wrap;rounded=0;fontSize=11;fontColor=#232F3E;" parent="1" vertex="1">
          <mxGeometry x="145" y="280" width="60" height="30" as="geometry" />
        </mxCell>
        <mxCell id="OhggSYJSpCa1kSrFaGi9-8" style="edgeStyle=orthogonalEdgeStyle;rounded=0;orthogonalLoop=1;jettySize=auto;html=1;entryX=0;entryY=0.5;entryDx=0;entryDy=0;entryPerimeter=0;" parent="1" source="user" target="OhggSYJSpCa1kSrFaGi9-1" edge="1">
          <mxGeometry relative="1" as="geometry" />
        </mxCell>
        <mxCell id="OhggSYJSpCa1kSrFaGi9-9" value="" style="group" parent="1" vertex="1" connectable="0">
          <mxGeometry x="604" y="340" width="206" height="110" as="geometry" />
        </mxCell>
        <mxCell id="OhggSYJSpCa1kSrFaGi9-18" value="" style="rounded=0;whiteSpace=wrap;html=1;fillColor=#ffe6cc;strokeColor=#d79b00;" parent="OhggSYJSpCa1kSrFaGi9-9" vertex="1">
          <mxGeometry x="-204" y="-20" width="410" height="130" as="geometry" />
        </mxCell>
        <mxCell id="OhggSYJSpCa1kSrFaGi9-10" value="" style="sketch=0;points=[[0,0,0],[0.25,0,0],[0.5,0,0],[0.75,0,0],[1,0,0],[0,1,0],[0.25,1,0],[0.5,1,0],[0.75,1,0],[1,1,0],[0,0.25,0],[0,0.5,0],[0,0.75,0],[1,0.25,0],[1,0.5,0],[1,0.75,0]];outlineConnect=0;fontColor=#232F3E;gradientColor=#4AB29A;gradientDirection=north;fillColor=#116D5B;strokeColor=#ffffff;dashed=0;verticalLabelPosition=bottom;verticalAlign=top;align=center;html=1;fontSize=12;fontStyle=0;aspect=fixed;shape=mxgraph.aws4.resourceIcon;resIcon=mxgraph.aws4.bedrock;" parent="OhggSYJSpCa1kSrFaGi9-9" vertex="1">
          <mxGeometry width="60" height="60" as="geometry" />
        </mxCell>
        <mxCell id="OhggSYJSpCa1kSrFaGi9-11" value="Amazon Bedrock" style="text;html=1;strokeColor=none;fillColor=none;align=center;verticalAlign=middle;whiteSpace=wrap;rounded=0;fontSize=11;fontColor=#232F3E;" parent="OhggSYJSpCa1kSrFaGi9-9" vertex="1">
          <mxGeometry x="-40" y="60" width="140" height="30" as="geometry" />
        </mxCell>
        <mxCell id="OhggSYJSpCa1kSrFaGi9-6" value="" style="group" parent="OhggSYJSpCa1kSrFaGi9-9" vertex="1" connectable="0">
          <mxGeometry x="-173" y="-240" width="110" height="80" as="geometry" />
        </mxCell>
        <mxCell id="cloudfront" value="" style="sketch=0;points=[[0,0,0],[0.25,0,0],[0.5,0,0],[0.75,0,0],[1,0,0],[0,1,0],[0.25,1,0],[0.5,1,0],[0.75,1,0],[1,1,0],[0,0.25,0],[0,0.5,0],[0,0.75,0],[1,0.25,0],[1,0.5,0],[1,0.75,0]];outlineConnect=0;fontColor=#232F3E;gradientColor=#945DF2;gradientDirection=north;fillColor=#5A30B5;strokeColor=#ffffff;dashed=0;verticalLabelPosition=bottom;verticalAlign=top;align=center;html=1;fontSize=12;fontStyle=0;aspect=fixed;shape=mxgraph.aws4.resourceIcon;resIcon=mxgraph.aws4.cloudfront;" parent="OhggSYJSpCa1kSrFaGi9-6" vertex="1">
          <mxGeometry x="20" width="60" height="60" as="geometry" />
        </mxCell>
        <mxCell id="cloudfront-label" value="Amazon CloudFront" style="text;html=1;strokeColor=none;fillColor=none;align=center;verticalAlign=middle;whiteSpace=wrap;rounded=0;fontSize=12;fontColor=#232F3E;" parent="OhggSYJSpCa1kSrFaGi9-6" vertex="1">
          <mxGeometry y="60" width="110" height="20" as="geometry" />
        </mxCell>
        <mxCell id="OhggSYJSpCa1kSrFaGi9-13" value="" style="group" parent="OhggSYJSpCa1kSrFaGi9-9" vertex="1" connectable="0">
          <mxGeometry x="-174" y="-120" width="100" height="92.5" as="geometry" />
        </mxCell>
        <mxCell id="cognito" value="" style="sketch=0;points=[[0,0,0],[0.25,0,0],[0.5,0,0],[0.75,0,0],[1,0,0],[0,1,0],[0.25,1,0],[0.5,1,0],[0.75,1,0],[1,1,0],[0,0.25,0],[0,0.5,0],[0,0.75,0],[1,0.25,0],[1,0.5,0],[1,0.75,0]];outlineConnect=0;fontColor=#232F3E;gradientColor=#F54749;gradientDirection=north;fillColor=#C7131F;strokeColor=#ffffff;dashed=0;verticalLabelPosition=bottom;verticalAlign=top;align=center;html=1;fontSize=12;fontStyle=0;aspect=fixed;shape=mxgraph.aws4.resourceIcon;resIcon=mxgraph.aws4.cognito;" parent="OhggSYJSpCa1kSrFaGi9-13" vertex="1">
          <mxGeometry x="20" width="60" height="60" as="geometry" />
        </mxCell>
        <mxCell id="cognito-label" value="Amazon Cognito&lt;br&gt;User Pool" style="text;html=1;strokeColor=none;fillColor=none;align=center;verticalAlign=middle;whiteSpace=wrap;rounded=0;fontSize=11;fontColor=#232F3E;" parent="OhggSYJSpCa1kSrFaGi9-13" vertex="1">
          <mxGeometry y="62.5" width="100" height="30" as="geometry" />
        </mxCell>
        <mxCell id="OhggSYJSpCa1kSrFaGi9-12" value="&lt;span style=&quot;background-color: light-dark(rgb(252, 230, 204), rgb(237, 237, 237));&quot;&gt;LLM calls&lt;/span&gt;" style="edgeStyle=orthogonalEdgeStyle;rounded=0;orthogonalLoop=1;jettySize=auto;html=1;strokeColor=#116D5B;strokeWidth=3;fontColor=#232F3E;fontSize=12;fontStyle=1;entryX=0;entryY=0.5;entryDx=0;entryDy=0;entryPerimeter=0;exitX=1;exitY=0.5;exitDx=0;exitDy=0;exitPerimeter=0;" parent="OhggSYJSpCa1kSrFaGi9-9" source="bedrock" target="OhggSYJSpCa1kSrFaGi9-10" edge="1">
          <mxGeometry x="-0.0909" y="10" relative="1" as="geometry">
            <Array as="points" />
            <mxPoint x="-104" y="30" as="sourcePoint" />
            <mxPoint x="293.5" y="220" as="targetPoint" />
            <mxPoint as="offset" />
          </mxGeometry>
        </mxCell>
        <mxCell id="OhggSYJSpCa1kSrFaGi9-23" value="" style="group" parent="OhggSYJSpCa1kSrFaGi9-9" vertex="1" connectable="0">
          <mxGeometry x="-179" width="110" height="90" as="geometry" />
        </mxCell>
        <mxCell id="bedrock" value="" style="sketch=0;points=[[0,0,0],[0.25,0,0],[0.5,0,0],[0.75,0,0],[1,0,0],[0,1,0],[0.25,1,0],[0.5,1,0],[0.75,1,0],[1,1,0],[0,0.25,0],[0,0.5,0],[0,0.75,0],[1,0.25,0],[1,0.5,0],[1,0.75,0]];outlineConnect=0;fontColor=#232F3E;gradientColor=#4AB29A;gradientDirection=north;fillColor=#116D5B;strokeColor=#ffffff;dashed=0;verticalLabelPosition=bottom;verticalAlign=top;align=center;html=1;fontSize=12;fontStyle=0;aspect=fixed;shape=mxgraph.aws4.resourceIcon;resIcon=mxgraph.aws4.bedrock;" parent="OhggSYJSpCa1kSrFaGi9-23" vertex="1">
          <mxGeometry x="25" width="60" height="60" as="geometry" />
        </mxCell>
        <mxCell id="bedrock-label" value="Amazon Bedrock&lt;br&gt;AgentCore" style="text;html=1;strokeColor=none;fillColor=none;align=center;verticalAlign=middle;whiteSpace=wrap;rounded=0;fontSize=11;fontColor=#232F3E;" parent="OhggSYJSpCa1kSrFaGi9-23" vertex="1">
          <mxGeometry y="60" width="110" height="30" as="geometry" />
        </mxCell>
        <mxCell id="OhggSYJSpCa1kSrFaGi9-19" value="Frontend (React)" style="text;html=1;align=center;verticalAlign=middle;resizable=0;points=[];autosize=1;strokeColor=none;fillColor=none;" parent="1" vertex="1">
          <mxGeometry x="705" y="70" width="110" height="30" as="geometry" />
        </mxCell>
        <mxCell id="OhggSYJSpCa1kSrFaGi9-20" value="Authentication" style="text;html=1;align=center;verticalAlign=middle;resizable=0;points=[];autosize=1;strokeColor=none;fillColor=none;" parent="1" vertex="1">
          <mxGeometry x="715" y="190" width="100" height="30" as="geometry" />
        </mxCell>
        <mxCell id="OhggSYJSpCa1kSrFaGi9-21" value="Agent" style="text;html=1;align=center;verticalAlign=middle;resizable=0;points=[];autosize=1;strokeColor=none;fillColor=none;" parent="1" vertex="1">
          <mxGeometry x="760" y="320" width="50" height="30" as="geometry" />
        </mxCell>
        <mxCell id="flow3" value="3. API Calls with JWT Bearer Token" style="edgeStyle=orthogonalEdgeStyle;rounded=0;orthogonalLoop=1;jettySize=auto;html=1;strokeColor=#116D5B;strokeWidth=3;fontColor=#232F3E;fontSize=12;fontStyle=1;entryX=0;entryY=0.5;entryDx=0;entryDy=0;entryPerimeter=0;" parent="1" target="bedrock" edge="1">
          <mxGeometry x="0.0448" y="10" relative="1" as="geometry">
            <Array as="points">
              <mxPoint x="175" y="370" />
            </Array>
            <mxPoint x="175" y="310" as="sourcePoint" />
            <mxPoint as="offset" />
          </mxGeometry>
        </mxCell>
      </root>
    </mxGraphModel>
  </diagram>
</mxfile>
